<?xml version="1.0" standalone="no"?>
<!DOCTYPE svg PUBLIC "-//W3C//DTD SVG 20010904//EN"
 "http://www.w3.org/TR/2001/REC-SVG-20010904/DTD/svg10.dtd">
<svg version="1.0" xmlns="http://www.w3.org/2000/svg"
 width="260.000000pt" height="260.000000pt" viewBox="0 0 260.000000 260.000000"
 preserveAspectRatio="xMidYMid meet">
<metadata>
Created by potrace 1.14, written by Peter Selinger 2001-2017
</metadata>
<g transform="translate(0.000000,260.000000) scale(0.100000,-0.100000)"
fill="#000000" stroke="none">
<path d="M1272 2326 c-55 -63 -107 -210 -116 -327 -3 -41 -21 -47 -76 -25 -22
9 -52 18 -67 21 -16 3 -38 7 -50 9 -18 4 -23 -1 -29 -27 -15 -67 8 -215 52
-346 8 -24 13 -45 11 -47 -1 -2 -37 28 -77 67 -72 68 -161 129 -208 144 -19 5
-25 1 -37 -29 -8 -19 -15 -50 -15 -67 0 -28 -3 -31 -23 -25 -12 4 -26 8 -32
10 -54 16 -170 27 -191 19 -30 -11 38 -146 143 -285 24 -31 43 -58 43 -61 0
-2 -24 -9 -52 -16 -29 -6 -61 -18 -71 -26 -17 -12 -17 -16 -3 -42 27 -53 141
-146 242 -197 l47 -24 -44 -48 c-24 -27 -70 -75 -102 -108 -31 -33 -57 -63
-57 -67 0 -13 146 -72 229 -94 146 -37 262 -33 451 16 20 5 16 -79 -10 -211
-22 -113 -48 -178 -89 -221 -45 -47 -40 -68 17 -74 43 -5 72 12 88 50 28 67
64 220 79 334 9 63 17 116 19 118 2 2 23 -3 47 -11 93 -31 213 -41 329 -25 84
11 291 78 297 96 2 6 -30 49 -72 95 -42 45 -85 95 -96 110 l-20 28 23 10 c13
5 32 16 42 22 11 7 44 28 73 46 64 40 148 119 157 148 6 18 -1 25 -39 43 -24
11 -51 21 -59 21 -33 0 -24 25 42 113 72 96 126 196 120 225 -3 13 -15 17 -53
18 -45 1 -135 -15 -176 -31 -14 -5 -17 3 -21 50 -7 82 -20 91 -88 59 -58 -27
-117 -70 -192 -143 -26 -24 -50 -42 -53 -40 -3 3 4 32 14 65 19 57 38 127 47
169 8 33 11 135 6 162 -4 23 -8 24 -46 18 -22 -4 -71 -17 -108 -29 l-68 -22
-1 45 c-1 51 -3 67 -24 158 -21 89 -77 194 -111 207 -7 3 -26 -10 -42 -28z"/>
</g>
</svg>
